<svg width="80" height="60" viewBox="0 0 80 60" fill="none" xmlns="http://www.w3.org/2000/svg">
<g clip-path="url(#clip0_2012_33)">
<path fill-rule="evenodd" clip-rule="evenodd" d="M76.6724 30.6108C76.648 29.9769 76.4339 29.3643 76.0571 28.8506C75.6803 28.3369 75.1578 27.9452 74.5557 27.7249C73.9536 27.5046 73.2989 27.4658 72.6744 27.6132C72.05 27.7606 71.4838 28.0877 71.0475 28.5531C70.6111 29.0185 70.3243 29.6013 70.2232 30.2278C70.1221 30.8543 70.2114 31.4964 70.4796 32.0728C70.7479 32.6491 71.1831 33.134 71.7302 33.4659C72.2773 33.7979 72.9118 33.9621 73.5534 33.9377C74.4134 33.9051 75.2251 33.5363 75.81 32.9124C76.3949 32.2885 76.7051 31.4606 76.6724 30.6108Z" fill="#0072BC"/>
<path fill-rule="evenodd" clip-rule="evenodd" d="M75.0495 18.2465C74.6527 17.7477 74.115 17.3764 73.5045 17.1797C72.894 16.9829 72.2382 16.9694 71.62 17.141C71.0018 17.3125 70.449 17.6615 70.0315 18.1435C69.614 18.6256 69.3506 19.2192 69.2746 19.8493C69.1986 20.4793 69.3134 21.1174 69.6045 21.683C69.8957 22.2485 70.35 22.716 70.9101 23.0263C71.4702 23.3367 72.1108 23.4759 72.751 23.4264C73.3912 23.3769 74.0021 23.1409 74.5065 22.7483C75.1823 22.2222 75.6191 21.4525 75.721 20.6084C75.8228 19.7643 75.5813 18.9148 75.0495 18.2465Z" fill="#0072BC"/>
<path fill-rule="evenodd" clip-rule="evenodd" d="M65.2332 37.992C64.8759 38.5192 64.6848 39.1393 64.6843 39.7738C64.6837 40.4083 64.8736 41.0287 65.23 41.5566C65.5863 42.0844 66.0931 42.496 66.6863 42.7392C67.2794 42.9824 67.9322 43.0462 68.5621 42.9227C69.192 42.7992 69.7706 42.4939 70.2249 42.0453C70.6791 41.5968 70.9884 41.0252 71.1138 40.4029C71.2392 39.7806 71.1749 39.1355 70.9292 38.5493C70.6834 37.9631 70.2672 37.462 69.7332 37.1096C69.0179 36.6375 68.1422 36.4653 67.2984 36.6307C66.4547 36.7961 65.7119 37.2858 65.2332 37.992Z" fill="#0072BC"/>
<path fill-rule="evenodd" clip-rule="evenodd" d="M6.49203 29.0967C6.47986 28.4626 6.27767 27.8462 5.91104 27.3256C5.5444 26.805 5.02977 26.4035 4.43222 26.1718C3.83466 25.9401 3.181 25.8887 2.55388 26.0241C1.92676 26.1594 1.35434 26.4755 0.908977 26.9323C0.463616 27.389 0.165313 27.966 0.0517838 28.5903C-0.0617458 29.2146 0.0145938 29.8581 0.271152 30.4395C0.52771 31.0209 0.952966 31.514 1.49316 31.8567C2.03335 32.1993 2.66423 32.376 3.30603 32.3644C3.7324 32.3567 4.15307 32.266 4.54398 32.0976C4.93489 31.9292 5.28837 31.6863 5.58425 31.3828C5.88012 31.0794 6.11258 30.7213 6.26834 30.329C6.42411 29.9368 6.50012 29.518 6.49203 29.0967Z" fill="#0072BC"/>
<path fill-rule="evenodd" clip-rule="evenodd" d="M6.55801 37.7483C6.17142 37.2416 5.64139 36.8596 5.035 36.6506C4.42862 36.4416 3.77313 36.4151 3.15147 36.5743C2.52981 36.7335 1.96992 37.0714 1.54266 37.5452C1.11539 38.0189 0.839953 38.6073 0.75119 39.2357C0.662426 39.8642 0.764324 40.5046 1.044 41.0758C1.32367 41.647 1.76856 42.1235 2.32234 42.4448C2.87613 42.7661 3.51393 42.9179 4.15505 42.8809C4.79617 42.844 5.41179 42.62 5.92401 42.2372C6.60997 41.7246 7.06201 40.964 7.18088 40.1223C7.29975 39.2807 7.07573 38.4269 6.55801 37.7483Z" fill="#0072BC"/>
<path fill-rule="evenodd" clip-rule="evenodd" d="M6.27213 18.3893C5.90407 18.9091 5.70029 19.5252 5.68659 20.1594C5.67289 20.7937 5.84987 21.4178 6.19515 21.9527C6.54043 22.4875 7.0385 22.9092 7.62636 23.1644C8.21421 23.4196 8.86545 23.4967 9.4977 23.3861C10.1299 23.2755 10.7148 22.9821 11.1783 22.5431C11.6417 22.104 11.963 21.539 12.1015 20.9195C12.2399 20.3 12.1893 19.6539 11.9561 19.0628C11.7229 18.4717 11.3174 17.9622 10.7911 17.5988C10.0857 17.1117 9.21342 16.9214 8.36601 17.0696C7.51861 17.2179 6.76546 17.6925 6.27213 18.3893Z" fill="#0072BC"/>
<path fill-rule="evenodd" clip-rule="evenodd" d="M65.728 16.2666C65.4931 18.7941 65.4871 20.7802 65.1971 22.3177C64.8832 23.9806 62.8325 28.1603 61.5777 30.9032C61.5851 31.2813 61.5691 31.6595 61.5297 32.0356C61.2767 34.9574 59.557 38.5046 58.3921 41.1992C56.9024 44.6634 54.4467 47.6445 52.613 50.9467C51.2192 53.4565 48.8136 57.5521 46.8579 59.2339C45.838 60.1103 44.9752 60.0451 43.7024 59.9018C42.0435 59.7538 40.4214 59.3327 38.9031 58.6558C38.4635 58.4427 38.0721 58.1438 37.7528 57.7769C37.4335 57.4101 37.1928 56.983 37.0454 56.5215C35.9595 53.3972 36.4455 47.5783 34.0288 44.115C31.1153 39.9413 31.4532 39.1845 27.3198 36.1915C25.962 35.2034 17.4743 33.9021 17.6673 32.2451C17.8603 30.4566 19.791 29.1207 21.5947 28.8292C23.8204 28.4716 25.7751 28.2364 30.4934 29.8608C33.027 30.7432 39.47 36.651 41.9196 35.5661C43.7995 34.6796 45.4783 33.4262 46.8549 31.8815C49.3441 32.7802 52.0173 33.0668 54.6437 32.7164L55.3616 32.6027C57.7752 32.2154 60.2419 30.429 60.5138 27.9044C60.6648 26.4736 59.307 25.6505 58.1912 25.1555C57.0275 24.678 55.8323 24.2795 54.6137 23.9629L53.8538 23.7544C55.4124 21.6791 56.8041 19.4864 58.0162 17.1964C58.5831 16.0996 59.223 13.9535 59.7049 12.7964C60.3049 11.3143 61.1887 9.88649 61.8646 8.53379C62.4015 7.44689 62.9265 5.79676 63.4754 4.89068C64.7902 2.73268 67.0288 0.323713 69.7494 0.0312378C71.6262 -0.171321 73.4489 0.561839 71.9571 2.78604C70.2983 5.24244 68.6506 7.16232 67.5108 9.89242C66.6359 11.9852 66.4789 14.1669 65.749 16.2538L65.728 16.2666Z" fill="#0072BC"/>
<path fill-rule="evenodd" clip-rule="evenodd" d="M10.9493 43.7401C11.1843 41.2125 11.1903 39.2264 11.4802 37.689C11.7942 36.025 13.8449 31.8464 15.0997 29.1034C15.0922 28.7253 15.1083 28.3472 15.1477 27.9711C15.4006 25.0493 17.1264 21.502 18.2852 18.8075C19.775 15.3432 22.2306 12.3622 24.0643 9.05996C25.4581 6.5502 27.8638 2.45453 29.8195 0.772793C30.8393 -0.103646 31.7022 -0.0384263 32.975 0.104847C34.6339 0.252758 36.256 0.673916 37.7743 1.35085C38.2139 1.56392 38.6052 1.8629 38.9245 2.22975C39.2439 2.59661 39.4845 3.0237 39.632 3.48514C40.7178 6.60949 40.2319 12.4284 42.6485 15.8916C45.5621 20.0653 45.2241 20.8222 49.3575 23.8151C50.7153 24.8032 59.203 26.1046 59.0101 27.7616C58.8171 29.5501 56.8864 30.8859 55.0826 31.1774C52.856 31.5351 50.9023 31.7703 46.184 30.1459C43.6504 29.2635 37.2073 23.3547 34.7577 24.4406C32.8779 25.3271 31.1991 26.5804 29.8225 28.1252C27.3332 27.2265 24.66 26.9399 22.0336 27.2903L21.3158 27.4039C18.9021 27.7912 16.4355 29.5777 16.1635 32.1023C16.0126 33.533 17.3704 34.3561 18.4862 34.8512C19.6498 35.3288 20.845 35.7273 22.0636 36.0438L22.8235 36.2523C21.2649 38.3275 19.8732 40.5202 18.6612 42.8102C18.0942 43.907 17.4543 46.0532 16.9724 47.2102C16.3725 48.6924 15.4886 50.1192 14.8127 51.467C14.2758 52.5539 13.7509 54.203 13.202 55.11C11.8872 57.268 9.64851 59.677 6.92792 59.9695C5.05121 60.172 3.22848 59.4389 4.72026 57.2147C6.37901 54.7583 8.02676 52.8384 9.16659 50.1083C10.0415 48.0155 10.1984 45.8338 10.9283 43.747L10.9493 43.7401Z" fill="#0072BC"/>
<path fill-rule="evenodd" clip-rule="evenodd" d="M65.728 16.2666C65.4931 18.7941 65.4871 20.7802 65.1971 22.3177C64.8832 23.9806 62.8325 28.1603 61.5777 30.9032C61.5851 31.2813 61.5691 31.6595 61.5297 32.0356C61.2767 34.9574 59.557 38.5046 58.3921 41.1992C56.9024 44.6634 54.4467 47.6445 52.613 50.9467C51.2192 53.4565 48.8136 57.5521 46.8579 59.2339C45.838 60.1103 44.9752 60.0451 43.7024 59.9018C42.0435 59.7538 40.4214 59.3327 38.9031 58.6558C38.4635 58.4427 38.0721 58.1438 37.7528 57.7769C37.4335 57.4101 37.1928 56.983 37.0454 56.5215C35.9595 53.3972 36.4455 47.5783 34.0288 44.115C31.1153 39.9413 31.4532 39.1845 27.3198 36.1915C25.962 35.2034 17.4743 33.9021 17.6673 32.2451C17.8603 30.4566 19.791 29.1207 21.5947 28.8292C23.8204 28.4716 25.7751 28.2364 30.4934 29.8608C33.027 30.7432 39.47 36.651 41.9196 35.5661C43.7995 34.6796 45.4783 33.4262 46.8549 31.8815C49.3441 32.7802 52.0173 33.0668 54.6437 32.7164L55.3616 32.6027C57.7752 32.2154 60.2419 30.429 60.5138 27.9044C60.6648 26.4736 59.307 25.6505 58.1912 25.1555C57.0275 24.678 55.8323 24.2795 54.6137 23.9629L53.8538 23.7544C55.4124 21.6791 56.8041 19.4864 58.0162 17.1964C58.5831 16.0996 59.223 13.9535 59.7049 12.7964C60.3049 11.3143 61.1887 9.88649 61.8646 8.53379C62.4015 7.44689 62.9265 5.79676 63.4754 4.89068C64.7902 2.73269 67.0288 0.323713 69.7494 0.0312378C71.6262 -0.171321 73.4489 0.561839 71.9571 2.78604C70.2983 5.24244 68.6506 7.16232 67.5108 9.89242C66.6359 11.9852 66.4789 14.1669 65.749 16.2538L65.728 16.2666Z" fill="#E11B22"/>
<path fill-rule="evenodd" clip-rule="evenodd" d="M10.9493 43.7401C11.1843 41.2125 11.1903 39.2264 11.4802 37.689C11.7942 36.025 13.8449 31.8464 15.0997 29.1034C15.0922 28.7253 15.1083 28.3472 15.1477 27.9711C15.4006 25.0493 17.1264 21.502 18.2852 18.8075C19.775 15.3432 22.2306 12.3622 24.0643 9.05996C25.4581 6.5502 27.8638 2.45453 29.8195 0.772793C30.8393 -0.103646 31.7022 -0.0384263 32.975 0.104847C34.6339 0.252758 36.256 0.673916 37.7743 1.35085C38.2139 1.56392 38.6052 1.8629 38.9245 2.22975C39.2439 2.59661 39.4845 3.0237 39.632 3.48514C40.7178 6.60949 40.2319 12.4284 42.6485 15.8916C45.5621 20.0653 45.2241 20.8222 49.3575 23.8151C50.7153 24.8032 59.203 26.1046 59.0101 27.7616C58.8171 29.5501 56.8864 30.8859 55.0826 31.1774C52.856 31.5351 50.9023 31.7703 46.184 30.1459C43.6504 29.2635 37.2073 23.3547 34.7577 24.4406C32.8779 25.3271 31.1991 26.5804 29.8225 28.1252C27.3332 27.2265 24.66 26.9399 22.0336 27.2903L21.3158 27.4039C18.9021 27.7912 16.4355 29.5777 16.1635 32.1023C16.0126 33.533 17.3704 34.3561 18.4862 34.8512C19.6498 35.3288 20.845 35.7273 22.0636 36.0438L22.8235 36.2523C21.2649 38.3275 19.8732 40.5202 18.6612 42.8102C18.0942 43.907 17.4543 46.0532 16.9724 47.2102C16.3725 48.6924 15.4886 50.1192 14.8127 51.467C14.2758 52.5539 13.7509 54.203 13.202 55.11C11.8872 57.268 9.64851 59.677 6.92792 59.9695C5.05121 60.172 3.22848 59.4389 4.72026 57.2147C6.37901 54.7583 8.02676 52.8384 9.16659 50.1083C10.0415 48.0155 10.1984 45.8338 10.9283 43.747L10.9493 43.7401Z" fill="#0072BC"/>
</g>
<defs>
<clipPath id="clip0_2012_33">
<rect width="80" height="60" fill="white"/>
</clipPath>
</defs>
</svg>
